<?xml version="1.0" standalone="no"?>
<!DOCTYPE svg PUBLIC "-//W3C//DTD SVG 20010904//EN"
 "http://www.w3.org/TR/2001/REC-SVG-20010904/DTD/svg10.dtd">
<svg version="1.0" xmlns="http://www.w3.org/2000/svg"
 width="400.000000pt" height="400.000000pt" viewBox="0 0 400.000000 400.000000"
 preserveAspectRatio="xMidYMid meet" style="background-color:#FFD167;">

<g transform="translate(0.000000,400.000000) scale(0.100000,-0.100000)"
fill="#000000" stroke="none">
<path d="M2949 3677 c-103 -29 -195 -112 -221 -201 -46 -154 26 -311 172 -378
63 -28 178 -28 242 1 53 24 128 93 152 140 46 88 39 220 -16 301 -73 109 -216
168 -329 137z m139 -41 c82 -22 133 -63 175 -141 17 -31 22 -57 22 -115 0 -84
-20 -134 -76 -189 -55 -56 -105 -76 -189 -76 -65 0 -82 4 -128 29 -92 51 -142
135 -142 236 0 122 72 218 193 256 55 17 81 17 145 0z"/>
<path d="M2603 3602 c-78 -120 -83 -297 -11 -433 37 -71 103 -138 119 -122 9
9 1 24 -31 60 -82 92 -119 215 -99 328 12 65 41 139 66 167 15 17 12 48 -4 48
-5 0 -23 -22 -40 -48z"/>
<path d="M3402 3173 c-37 -61 -68 -94 -120 -128 -43 -28 -50 -39 -32 -50 38
-23 229 176 205 215 -11 19 -23 10 -53 -37z"/>
<path d="M2811 2833 c-19 -9 -48 -32 -66 -50 -21 -21 -57 -42 -101 -57 -103
-36 -178 -73 -209 -104 -57 -56 -99 -190 -114 -366 -10 -112 -13 -125 -56
-209 -47 -93 -54 -117 -32 -117 8 0 35 42 60 93 47 91 67 171 67 262 0 45 44
224 65 264 28 54 99 98 227 140 47 16 81 36 115 67 71 65 80 65 131 8 41 -47
43 -51 39 -101 -2 -34 -13 -65 -30 -92 -22 -32 -24 -41 -12 -51 27 -23 85 85
85 160 0 41 -35 97 -89 143 -38 32 -36 31 -80 10z"/>
<path d="M2983 2563 c-9 -3 -13 -26 -13 -66 -1 -40 -8 -76 -20 -102 -11 -22
-20 -44 -20 -50 0 -5 -14 -28 -31 -50 -42 -56 -55 -111 -68 -281 -24 -312 -31
-382 -45 -421 -29 -84 -65 -150 -106 -195 -54 -62 -186 -149 -275 -183 -80
-30 -96 -42 -76 -54 18 -12 125 29 210 79 198 118 288 267 311 515 5 61 14
175 19 255 11 156 28 229 61 265 34 36 80 169 80 230 0 55 -5 66 -27 58z"/>
<path d="M2080 2028 c-19 -5 -147 -13 -285 -17 -192 -6 -260 -11 -292 -24 -72
-27 -148 -82 -186 -134 -55 -75 -176 -370 -162 -394 10 -15 35 -10 35 7 0 9
21 68 46 132 91 231 122 274 239 335 l60 31 235 7 c295 9 390 22 390 55 0 16
-27 17 -80 2z"/>
<path d="M1131 1622 c-20 -14 -53 -16 -205 -17 -154 -1 -187 -3 -219 -19 -41
-20 -67 -50 -67 -77 0 -9 -15 -24 -34 -33 -39 -19 -149 -133 -143 -150 2 -6
-21 -24 -52 -39 -68 -35 -95 -59 -116 -102 -12 -27 -13 -39 -3 -59 14 -32 95
-73 159 -82 58 -8 287 12 434 37 61 10 183 24 273 31 149 11 162 14 162 32 0
18 -6 18 -102 12 -133 -9 -255 -23 -343 -41 -101 -20 -357 -39 -421 -31 -58 7
-102 24 -123 49 -17 22 3 60 53 95 54 39 98 50 234 58 103 6 112 9 112 27 0
19 -5 19 -102 13 -57 -4 -112 -10 -122 -13 -16 -4 -13 2 13 35 45 58 86 90
132 103 39 12 61 10 192 -18 24 -5 28 -3 25 12 -3 20 -57 39 -139 50 -50 7
-55 11 -41 32 21 33 80 43 249 43 140 0 174 3 203 18 19 9 35 23 35 31 0 21
-17 22 -44 3z"/>
<path d="M2906 1601 c-4 -5 -1 -30 6 -55 10 -39 9 -59 -11 -150 -14 -61 -21
-116 -17 -131 9 -34 52 -77 73 -73 24 4 28 27 6 35 -48 18 -52 51 -21 177 19
82 20 94 7 145 -13 52 -30 73 -43 52z"/>
<path d="M2970 1383 c0 -14 17 -22 77 -36 112 -27 202 -79 281 -162 98 -103
145 -156 165 -187 l17 -28 -32 0 c-18 0 -71 9 -118 20 -226 54 -297 62 -460
54 -85 -4 -210 -7 -277 -8 -67 -1 -124 -4 -127 -7 -4 -3 1 -12 9 -19 22 -18
186 -19 338 -1 142 17 251 7 432 -39 66 -17 150 -33 186 -37 62 -5 68 -4 79
16 9 19 8 29 -12 61 -26 43 -116 147 -198 227 -58 57 -167 117 -269 147 -70
21 -91 20 -91 -1z"/>
<path d="M1810 1320 c0 -17 6 -43 14 -58 l14 -27 -107 0 c-92 0 -115 -4 -177
-28 -110 -43 -211 -111 -300 -201 -124 -125 -148 -190 -80 -216 27 -10 60 -3
176 38 148 53 187 57 371 41 90 -8 223 -14 294 -14 117 0 133 2 151 20 46 44
53 66 51 160 -2 82 1 94 26 139 31 55 33 66 13 66 -42 0 -90 -134 -80 -221 8
-69 -13 -113 -61 -129 -32 -11 -230 -1 -421 21 -133 15 -195 7 -351 -46 -73
-25 -139 -45 -147 -45 -49 0 -17 62 83 160 88 88 140 125 231 168 96 44 133
52 253 52 120 0 130 6 103 59 -9 16 -16 44 -16 61 0 23 -4 30 -20 30 -16 0
-20 -7 -20 -30z"/>
<path d="M840 345 l0 -146 97 3 c84 3 98 6 101 21 3 15 -6 17 -77 17 l-81 0 0
50 0 50 75 0 c60 0 75 3 75 15 0 12 -15 15 -75 15 l-75 0 0 40 0 39 78 3 c60
2 77 6 77 18 0 12 -19 16 -97 18 l-98 3 0 -146z"/>
<path d="M1910 486 c0 -3 6 -25 14 -48 8 -24 24 -77 36 -118 11 -41 25 -85 30
-97 11 -27 47 -31 53 -5 3 9 18 64 33 120 l28 104 24 -79 c45 -153 48 -158 70
-161 18 -3 24 6 43 70 11 40 30 102 40 137 24 78 24 81 -1 81 -13 0 -22 -9
-26 -27 -7 -34 -43 -162 -51 -183 -3 -8 -22 35 -42 95 -29 89 -40 110 -55 110
-16 0 -24 -16 -44 -80 -13 -44 -28 -93 -35 -109 -12 -32 -7 -42 -59 139 -11
38 -19 51 -36 53 -12 2 -22 1 -22 -2z"/>
<path d="M2890 365 l0 -125 -35 0 c-28 0 -35 -4 -35 -20 0 -16 7 -20 36 -20
72 0 74 5 74 155 0 128 -1 135 -20 135 -19 0 -20 -7 -20 -125z"/>
<path d="M3077 458 c-8 -18 -35 -81 -61 -139 -25 -59 -46 -110 -46 -113 0 -3
9 -6 19 -6 13 0 25 14 38 45 l18 45 66 0 67 0 21 -45 c12 -25 28 -45 36 -45
16 0 20 30 7 45 -5 6 -31 63 -57 128 -42 101 -52 117 -72 117 -16 0 -27 -9
-36 -32z m58 -55 c32 -76 31 -79 -19 -82 -24 -1 -46 2 -49 6 -5 9 38 113 47
113 3 0 13 -17 21 -37z"/>
<path d="M1060 411 c0 -9 26 -73 66 -158 28 -62 58 -72 74 -25 6 15 15 36 20
47 54 117 61 149 34 143 -9 -2 -27 -30 -40 -63 -50 -123 -42 -119 -77 -35 -18
42 -36 81 -40 88 -9 14 -37 16 -37 3z"/>
<path d="M1343 410 c-29 -12 -53 -60 -53 -106 0 -54 53 -104 110 -104 34 0 48
6 73 32 l32 33 -24 3 c-15 2 -30 -3 -37 -12 -16 -22 -77 -21 -97 2 -32 35 -21
42 68 42 80 0 85 1 85 21 0 32 -37 86 -63 93 -30 8 -68 6 -94 -4z m107 -49 c5
-11 10 -22 10 -25 0 -3 -29 -6 -65 -6 -36 0 -65 3 -65 6 0 3 5 14 10 25 15 27
95 27 110 0z"/>
<path d="M1534 405 c-4 -8 -1 -21 4 -28 6 -7 12 -49 14 -92 3 -72 5 -80 23
-80 18 0 20 8 23 75 3 84 12 100 53 100 23 0 29 5 29 21 0 19 -4 21 -32 15
-18 -3 -38 -13 -44 -21 -15 -20 -21 -19 -27 5 -6 23 -35 27 -43 5z"/>
<path d="M1690 415 c0 -2 11 -28 24 -57 63 -139 67 -153 57 -181 -8 -19 -18
-27 -36 -27 -16 0 -25 -6 -25 -15 0 -19 63 -21 78 -2 15 18 123 279 117 285
-11 12 -37 -11 -51 -45 -8 -21 -23 -56 -33 -78 l-19 -40 -27 60 c-15 33 -31
70 -36 83 -5 13 -17 22 -29 22 -11 0 -20 -2 -20 -5z"/>
<path d="M2350 414 c-20 -6 -43 -42 -34 -55 4 -6 15 -4 30 6 15 10 40 15 62
13 30 -2 38 -7 40 -25 3 -21 -1 -23 -43 -23 -93 0 -135 -54 -85 -108 27 -29
79 -29 114 -1 l27 21 6 -21 c3 -11 12 -21 19 -21 20 0 29 29 15 43 -6 6 -11
39 -11 73 0 56 -3 65 -26 83 -25 20 -73 26 -114 15z m100 -126 c-1 -36 -58
-65 -92 -47 -21 11 -24 45 -5 52 26 11 97 7 97 -5z"/>
<path d="M2520 413 c0 -5 7 -21 16 -38 8 -16 28 -62 44 -102 34 -85 30 -123
-15 -123 -16 0 -25 -6 -25 -15 0 -10 10 -15 34 -15 38 0 45 7 71 70 25 59 53
125 76 177 23 52 23 53 0 53 -13 0 -25 -15 -40 -52 -12 -29 -28 -66 -35 -83
l-14 -30 -38 83 c-27 58 -43 82 -56 82 -10 0 -18 -3 -18 -7z"/>
<path d="M2741 246 c-15 -18 -3 -46 20 -46 25 0 35 26 19 45 -15 19 -24 19
-39 1z"/>
</g>
</svg>
