<svg xmlns="http://www.w3.org/2000/svg" version="1.0" width="300.000000pt" height="289.000000pt" viewBox="-3 -3 306 295" preserveAspectRatio="xMidYMid meet"><g id="deeditor_bgCarrier" stroke-width="0">
    <rect id="dee_c_e" x="-3" y="-3" width="306" height="295" rx="0" fill="#ffd166" strokewidth="0"/>
  </g>
<metadata fill="#000000">
Created by potrace 1.10, written by Peter Selinger 2001-2011
</metadata>
<g transform="translate(0.000000,289.000000) scale(0.100000,-0.100000)" fill="#000000" stroke="none">
<path d="M2242 2445 c-83 -36 -132 -94 -149 -178 -21 -96 20 -193 106 -251 51 -34 153 -47 216 -26 48 16 110 72 138 124 45 86 23 209 -50 278 -65 62 -184 86 -261 53z m188 -36 c109 -54 149 -177 95 -286 -29 -58 -78 -96 -147 -115 -148 -39 -299 112 -259 259 36 139 185 206 311 142z" fill="#000000"/>
<path d="M1996 2397 c-78 -136 -64 -299 36 -412 27 -31 44 -43 51 -36 7 7 -1 22 -23 48 -56 63 -84 137 -84 220 0 63 4 80 36 142 27 53 32 71 22 75 -8 3 -23 -11 -38 -37z" fill="#000000"/>
<path d="M2631 2040 c-18 -28 -52 -64 -77 -81 -24 -16 -44 -36 -44 -44 0 -22 10 -18 62 20 41 30 118 126 118 147 0 24 -31 1 -59 -42z" fill="#000000"/>
<path d="M2117 1741 c-23 -21 -60 -44 -82 -51 -88 -28 -163 -68 -187 -101 -41 -54 -69 -157 -83 -301 -5 -49 -17 -90 -46 -148 -44 -92 -44 -90 -26 -90 7 0 30 34 50 76 32 64 41 96 52 188 19 153 46 236 89 274 19 16 75 46 126 65 55 22 107 50 131 72 21 19 43 35 48 35 5 0 26 -19 46 -42 32 -38 36 -48 32 -82 -3 -22 -15 -52 -26 -67 -22 -30 -27 -49 -12 -49 16 0 50 50 60 87 14 50 4 86 -36 133 -46 53 -78 54 -136 1z" fill="#000000"/>
<path d="M2294 1556 c-3 -9 -4 -23 -1 -31 10 -25 -18 -112 -56 -173 -43 -69 -53 -122 -66 -348 -20 -323 -89 -421 -385 -543 -19 -8 -26 -15 -19 -22 13 -13 125 32 201 81 114 74 184 173 211 300 7 30 16 128 21 216 11 188 22 245 56 295 36 53 64 132 64 184 0 45 -15 69 -26 41z" fill="#000000"/>
<path d="M1605 1138 c-16 -5 -128 -13 -248 -19 -148 -6 -229 -14 -252 -23 -62 -26 -126 -77 -155 -123 -34 -53 -120 -264 -120 -294 0 -41 22 -12 46 61 37 108 86 210 122 251 17 19 55 48 84 64 52 29 55 30 268 37 185 6 281 15 295 30 2 2 1 8 -3 14 -5 7 -17 8 -37 2z" fill="#000000"/>
<path d="M810 805 c-18 -10 -62 -14 -158 -15 -90 0 -143 -4 -166 -14 -34 -14 -69 -53 -60 -67 3 -5 -6 -11 -19 -14 -31 -8 -143 -120 -128 -129 6 -4 35 18 64 48 63 64 97 74 183 55 73 -16 76 -17 81 -3 5 14 -71 34 -127 34 -37 0 -39 1 -28 20 21 33 58 41 204 43 141 3 194 14 194 44 0 16 -8 16 -40 -2z" fill="#000000"/>
<path d="M2240 781 c0 -4 5 -22 11 -38 7 -23 6 -47 -5 -97 -22 -93 -21 -141 4 -166 24 -24 50 -26 50 -5 0 8 -7 15 -15 15 -30 0 -37 41 -21 114 18 78 20 139 6 167 -11 19 -30 26 -30 10z" fill="#000000"/>
<path d="M2290 616 c0 -9 19 -18 50 -25 102 -22 176 -68 272 -171 84 -89 117 -134 107 -145 -3 -2 -47 5 -99 16 -52 12 -124 27 -160 35 -76 16 -288 18 -375 4 -37 -6 -81 -6 -115 -1 -62 10 -89 -2 -44 -20 20 -8 62 -9 139 -3 198 16 328 10 450 -20 272 -66 295 -43 134 135 -92 101 -148 142 -244 178 -75 27 -115 33 -115 17z" fill="#000000"/>
<path d="M1362 558 c3 -18 9 -42 13 -52 8 -17 5 -19 -28 -13 -121 19 -292 -50 -419 -171 -110 -105 -135 -160 -84 -183 19 -9 43 -4 128 25 58 20 128 39 154 42 27 4 142 -1 256 -11 193 -16 209 -16 241 0 48 23 68 67 60 133 -5 43 -1 60 22 107 40 82 15 93 -27 12 -18 -34 -22 -57 -21 -115 2 -66 -1 -76 -22 -98 -29 -29 -50 -30 -294 -9 -95 8 -192 12 -215 9 -22 -3 -89 -22 -147 -41 -58 -20 -114 -33 -123 -30 -15 6 -15 9 -1 37 27 51 154 167 224 204 96 50 170 69 254 64 81 -3 77 -9 61 85 -8 49 -38 53 -32 5z" fill="#000000"/>
<path d="M278 549 c-51 -12 -116 -56 -134 -90 -34 -67 40 -119 167 -119 81 0 287 22 360 39 26 6 103 14 173 17 100 6 126 10 126 21 0 13 -17 14 -107 8 -60 -3 -146 -13 -193 -20 -311 -51 -484 -47 -507 10 -8 23 26 65 75 91 31 17 67 23 151 29 61 4 111 11 111 16 0 11 -173 10 -222 -2z" fill="#000000"/>
</g>
</svg>