<?xml version="1.0" encoding="UTF-8"?>
<svg version="1.1" xmlns="http://www.w3.org/2000/svg" width="1368" height="1367">
<path d="M0 0 C1.62929752 -0.00195496 3.25859456 -0.00434457 4.88789088 -0.00712797 C9.36992534 -0.01351316 13.85194185 -0.01369078 18.33398 -0.01285056 C23.20862452 -0.01302036 28.08326266 -0.01892982 32.95790398 -0.02409142 C42.62864291 -0.03341161 52.29937726 -0.0373385 61.97012012 -0.03961039 C73.55338852 -0.04257403 85.13665085 -0.05127247 96.71991606 -0.06002467 C124.71972839 -0.08086491 152.71954177 -0.09133874 180.71936005 -0.10015428 C193.96906362 -0.10436193 207.21876673 -0.1095838 220.46846992 -0.11483881 C265.12396754 -0.13244947 309.77946547 -0.14750078 354.43496606 -0.15480904 C357.99386122 -0.155393 361.55275638 -0.15599027 365.11165155 -0.15658666 C366.17058218 -0.15676384 366.17058218 -0.15676384 367.25090535 -0.1569446 C374.40290261 -0.15814194 381.55489988 -0.15935071 388.70689714 -0.16057713 C390.14086519 -0.16082237 391.57483325 -0.16106622 393.0088013 -0.1613087 C439.03265371 -0.16909332 485.05648056 -0.19146485 531.08032181 -0.22398513 C564.15444942 -0.24734731 597.22857195 -0.26889051 630.30270767 -0.27599144 C630.98365885 -0.27613846 631.66461004 -0.27628548 632.3661961 -0.27643696 C647.31887392 -0.27962262 662.27155169 -0.28167293 677.22422981 -0.28266451 C683.24153456 -0.28307921 689.25883929 -0.2836343 695.27614403 -0.28422642 C696.59253066 -0.28434961 697.9089173 -0.2844728 699.26519443 -0.28459973 C720.42331294 -0.28692899 741.58140141 -0.3025738 762.73950923 -0.32306826 C784.02170878 -0.34335528 805.30387239 -0.34878999 826.58607982 -0.33929763 C839.21800727 -0.33409368 851.84981479 -0.3399078 864.4817249 -0.3618323 C872.93595267 -0.37539239 881.39009835 -0.37421761 889.84432703 -0.36143034 C894.6507603 -0.35456822 899.45696516 -0.35374437 904.26337753 -0.37099043 C956.42634423 -0.54656402 1004.64782724 9.65782095 1048.06901741 40.13422108 C1048.73594612 40.59908924 1049.40287483 41.06395741 1050.0900135 41.54291248 C1098.34962143 75.51459979 1131.20056741 128.0515796 1142.20081854 185.8326478 C1145.54058382 205.09248422 1145.64203724 224.0828815 1145.58288763 243.56503593 C1145.57260866 248.43802778 1145.58583199 253.310971 1145.59586096 258.18395567 C1145.61021805 266.69872408 1145.60992516 275.2133908 1145.59967232 283.72816372 C1145.58446718 296.39046923 1145.59231615 309.05268985 1145.60450555 321.71499489 C1145.62551402 344.33714917 1145.62376472 366.95925812 1145.6121899 389.58141665 C1145.60211058 409.37895563 1145.59950883 429.17647803 1145.60428047 448.97401905 C1145.60473878 450.94714027 1145.60473878 450.94714027 1145.60520635 452.96012251 C1145.60645179 458.30039432 1145.60772303 463.64066611 1145.60904541 468.98093789 C1145.6127124 483.9067295 1145.61499556 498.83252117 1145.61618996 513.75831318 C1145.61624454 514.43784711 1145.61629912 515.11738105 1145.61635536 515.81750692 C1145.61799107 537.45172411 1145.61349217 559.08593556 1145.60479164 580.72015095 C1145.60437015 581.77178751 1145.60437015 581.77178751 1145.60394014 582.84466925 C1145.59936103 594.22800886 1145.59448286 605.61134836 1145.58957944 616.99468784 C1145.57015595 662.13480205 1145.57105752 707.27486879 1145.59050179 752.4149828 C1145.59538704 763.79275222 1145.60023145 775.17052165 1145.60479164 786.54829121 C1145.60507343 787.24898013 1145.60535523 787.94966906 1145.60564556 788.67159098 C1145.61427774 810.28443773 1145.61792599 831.89728055 1145.61618996 853.51012897 C1145.61610845 854.52866962 1145.61610845 854.52866962 1145.6160253 855.56778685 C1145.61477507 870.47734173 1145.6122399 885.3868962 1145.60854795 900.29645067 C1145.6070677 906.2957748 1145.60567398 912.29509895 1145.60428047 918.2944231 C1145.60396416 919.60678958 1145.60364785 920.91915606 1145.60332196 922.27129121 C1145.59878031 942.05188685 1145.60407777 961.83246406 1145.61419868 981.61305714 C1145.62565448 1004.11417474 1145.62273645 1026.61524012 1145.60107571 1049.11635125 C1145.58936483 1061.69504104 1145.58851411 1074.2736176 1145.60366041 1086.85230436 C1145.61267529 1095.27041944 1145.60696642 1103.68844435 1145.58964133 1112.10654615 C1145.58019073 1116.89202592 1145.57673613 1121.6772819 1145.59126526 1126.46275407 C1145.7110605 1169.11273622 1139.64406975 1209.15261392 1119.06901741 1247.13422108 C1118.74433479 1247.73814686 1118.41965218 1248.34207264 1118.08513069 1248.9642992 C1111.50629821 1261.1068133 1103.78883725 1272.42535883 1095.06901741 1283.13422108 C1094.28140022 1284.10746326 1093.49378304 1285.08070545 1092.68229866 1286.08343983 C1055.45644862 1331.43205088 1000.03238706 1360.87752707 941.66612707 1366.85775252 C928.56375023 1367.86478194 915.34630513 1367.55308123 902.21459431 1367.5258251 C897.33743787 1367.51905549 892.46031255 1367.52981111 887.58316296 1367.53822094 C879.0533345 1367.55054241 870.52356107 1367.5518199 861.99372673 1367.54567051 C849.30893358 1367.5365503 836.62419102 1367.54463484 823.93940174 1367.55596175 C801.2781267 1367.57559894 778.61687457 1367.5779817 755.95559305 1367.57276655 C736.1208668 1367.56820431 716.28614961 1367.56881487 696.45142365 1367.5746069 C693.78786978 1367.57536377 691.12431592 1367.57611975 688.46076205 1367.57687484 C684.44671191 1367.57801858 680.43266178 1367.57916977 676.41861165 1367.58033408 C639.11327148 1367.59108331 601.80793413 1367.59580046 564.50259304 1367.58786392 C563.80009735 1367.58771562 563.09760167 1367.58756731 562.37381824 1367.58741451 C554.54110343 1367.58575566 546.70838865 1367.58400607 538.87567387 1367.5822215 C538.16856026 1367.58206048 537.46144665 1367.58189945 536.73290535 1367.58173355 C530.9966784 1367.58042634 530.9966784 1367.58042634 528.15409373 1367.57977236 C482.93276777 1367.56938295 437.71148074 1367.57714643 392.49015999 1367.60077381 C381.09515992 1367.60671775 369.70015983 1367.61260954 358.30515957 1367.61818314 C357.25255022 1367.61869879 357.25255022 1367.61869879 356.17867603 1367.61922486 C334.53306169 1367.62976086 312.8874506 1367.63534654 291.24183369 1367.63574028 C290.56175506 1367.63575306 289.88167643 1367.63576584 289.18098935 1367.63577901 C274.24810727 1367.63600736 259.31522548 1367.63500069 244.38234355 1367.63286996 C238.37345904 1367.63202135 232.36457452 1367.63127723 226.35569 1367.63054562 C225.04120787 1367.63037581 223.72672574 1367.630206 222.37241082 1367.63003104 C202.55766645 1367.62773115 182.74294322 1367.63569025 162.92820358 1367.64883709 C140.38488004 1367.66376793 117.84160594 1367.66456526 95.29828344 1367.64676618 C82.69517731 1367.63722415 70.09218659 1367.6385951 57.48908824 1367.65600087 C49.05452471 1367.66653076 40.62004861 1367.66233344 32.18549362 1367.64652083 C27.39052772 1367.63793295 22.59578703 1367.63535544 17.80083314 1367.65079015 C-8.68050542 1367.73008938 -34.21267334 1366.50928823 -59.77619743 1358.78314686 C-61.86913851 1358.15284577 -63.97066903 1357.56314252 -66.07551384 1356.97406483 C-85.85921437 1351.15749575 -106.22805238 1341.18185281 -122.93098259 1329.13422108 C-123.89262321 1328.46004139 -124.85426384 1327.7858617 -125.84504509 1327.09125233 C-136.92929119 1319.19792556 -147.07284094 1310.48588332 -156.93098259 1301.13422108 C-157.68637321 1300.42136951 -158.44176384 1299.70851795 -159.22004509 1298.97406483 C-164.60508179 1293.7499356 -169.30614562 1288.0313312 -173.93098259 1282.13422108 C-174.39021111 1281.55672108 -174.84943962 1280.97922108 -175.32258415 1280.38422108 C-211.71557869 1234.42437246 -223.61932232 1181.1685649 -223.44485281 1123.70340622 C-223.43457384 1118.83041437 -223.44779717 1113.95747115 -223.45782614 1109.08448648 C-223.47218323 1100.56971807 -223.47189034 1092.05505135 -223.4616375 1083.54027843 C-223.44643236 1070.87797292 -223.45428133 1058.21575231 -223.46647073 1045.55344726 C-223.4874792 1022.93129299 -223.4857299 1000.30918404 -223.47415508 977.6870255 C-223.46407576 957.88948652 -223.461474 938.09196412 -223.46624565 918.2944231 C-223.46655119 916.97900896 -223.46685673 915.66359482 -223.46717153 914.30831964 C-223.46841697 908.96804784 -223.46968821 903.62777604 -223.47101059 898.28750426 C-223.47467758 883.36171265 -223.47696074 868.43592099 -223.47815514 853.51012897 C-223.47823701 852.49082807 -223.47823701 852.49082807 -223.47832054 851.45093523 C-223.47995625 829.81671805 -223.47545735 808.18250659 -223.46675682 786.54829121 C-223.46647582 785.84720017 -223.46619483 785.14610913 -223.46590532 784.42377291 C-223.46132621 773.04043329 -223.45644804 761.6570938 -223.45154462 750.27375432 C-223.43212113 705.13364011 -223.4330227 659.99357336 -223.45246696 614.85345936 C-223.45735222 603.47568994 -223.46219663 592.0979205 -223.46675682 580.72015095 C-223.46703861 580.01946202 -223.46732041 579.3187731 -223.46761074 578.59685118 C-223.47624292 556.98400442 -223.47989117 535.37116161 -223.47815514 513.75831318 C-223.4781008 513.07928608 -223.47804646 512.40025898 -223.47799048 511.7006553 C-223.47674025 496.79110042 -223.47420507 481.88154595 -223.47051312 466.97199148 C-223.46903288 460.97266735 -223.46763916 454.9733432 -223.46624565 448.97401905 C-223.46592934 447.66165257 -223.46561303 446.3492861 -223.46528714 444.99715094 C-223.46074549 425.2165553 -223.46604295 405.4359781 -223.47616386 385.65538502 C-223.48761966 363.15426741 -223.48470163 340.65320204 -223.46304089 318.15209091 C-223.45133001 305.57340111 -223.45047929 292.99482456 -223.46562559 280.4161378 C-223.47464047 271.99802271 -223.4689316 263.5799978 -223.45160651 255.16189601 C-223.44215591 250.37641624 -223.43870131 245.59116026 -223.45323044 240.80568808 C-223.60346955 187.33043776 -212.62787561 136.79335255 -179.93098259 93.13422108 C-179.27646111 92.24863514 -179.27646111 92.24863514 -178.60871696 91.34515858 C-150.3633907 53.34996413 -110.38986428 23.95855249 -64.93098259 10.13422108 C-64.23553337 9.91717518 -63.54008415 9.70012928 -62.82356071 9.47650623 C-42.26582518 3.12779379 -21.48637764 -0.0224763 0 0 Z " fill="#FED065" transform="translate(222.93098258972168,-0.13422107696533203)"/>
<path d="M0 0 C0.88945313 0.68835938 1.77890625 1.37671875 2.6953125 2.0859375 C3.70851563 2.85679687 4.72171875 3.62765625 5.765625 4.421875 C12.74591877 9.96762218 18.36218376 15.96129172 23.6953125 23.0859375 C24.28699219 23.8284375 24.87867188 24.5709375 25.48828125 25.3359375 C33.7210501 36.18736738 39.87197002 49.78882407 42.6953125 63.0859375 C42.86957764 63.8284375 43.04384277 64.5709375 43.22338867 65.3359375 C49.20252113 92.18958503 42.79506411 119.88333278 28.26171875 142.8515625 C25.28140691 147.10278039 22.01089912 151.09469563 18.6953125 155.0859375 C17.9321875 156.0965625 17.1690625 157.1071875 16.3828125 158.1484375 C-2.03255127 178.27685836 -29.23921187 190.06267719 -56.234375 191.4609375 C-84.81642431 192.33314894 -110.47206824 183.67686195 -132.3046875 165.0859375 C-133.15289063 164.42207031 -134.00109375 163.75820313 -134.875 163.07421875 C-152.55475255 148.60638266 -165.1072938 122.80413595 -168.08203125 100.47265625 C-168.55387037 95.41487195 -168.59451894 90.35008049 -168.6171875 85.2734375 C-168.62274658 84.22373779 -168.62830566 83.17403809 -168.6340332 82.0925293 C-168.41275565 58.16618484 -158.25659943 34.70686235 -142.3046875 17.0859375 C-141.5209375 16.0546875 -140.7371875 15.0234375 -139.9296875 13.9609375 C-104.83589354 -24.47512256 -41.97042618 -30.25218753 0 0 Z " fill="#FED065" transform="translate(1173.3046875,144.9140625)"/>
<path d="M0 0 C2.76590244 0.18858426 3.87932088 0.88839634 5.921875 2.77734375 C6.52515625 3.49019531 7.1284375 4.20304688 7.75 4.9375 C8.36359375 5.64777344 8.9771875 6.35804688 9.609375 7.08984375 C11 9 11 9 11 11 C-10.30231451 29.95436401 -37.69519311 29.21917474 -64.45078278 28.95290375 C-69.01637082 28.91016733 -73.58199949 28.88722788 -78.14771652 28.86287308 C-86.6085875 28.81751504 -95.06922693 28.76441314 -103.52978516 28.67773438 C-109.45396602 28.61780591 -115.377851 28.58323222 -121.3022995 28.56455231 C-123.53627904 28.5529402 -125.77023342 28.53234046 -128.00403595 28.50191498 C-145.93077789 28.26386497 -167.59659851 29.25865431 -181.953125 41.69140625 C-184.57066505 44.53131014 -186.22340922 47.28663407 -187.625 50.875 C-188.07875 51.90625 -188.5325 52.9375 -189 54 C-191.0859375 54.6953125 -191.0859375 54.6953125 -193 55 C-192.26700684 55.0093457 -191.53401367 55.01869141 -190.77880859 55.02832031 C-163.78054186 55.45786691 -138.87629692 59.1286106 -114 70 C-114.28482368 71.41805831 -114.57818144 72.83440379 -114.875 74.25 C-115.11863281 75.43335938 -115.11863281 75.43335938 -115.3671875 76.640625 C-115.99150075 78.96831144 -116.84838542 80.89031952 -118 83 C-122.41045402 82.11373855 -126.74263532 81.15383304 -131 79.6875 C-135.40962774 78.17386246 -139.84951765 76.78400431 -144.3125 75.4375 C-144.98732422 75.22762451 -145.66214844 75.01774902 -146.35742188 74.80151367 C-157.631392 71.43342841 -168.70976443 70.63645846 -180.4375 70.625 C-181.75298828 70.60050781 -183.06847656 70.57601562 -184.42382812 70.55078125 C-205.01265934 70.48965657 -218.86814002 79.09062411 -233 93 C-234.13249826 94.09407537 -235.26531104 95.18782527 -236.3984375 96.28125 C-243.10961718 102.8164593 -249.22143442 109.61386355 -255 117 C-256.5195374 118.8968722 -258.04031477 120.79275195 -259.5625 122.6875 C-260.70896699 124.12449468 -261.8550516 125.56179506 -263 127 C-257.15588099 127.08585875 -251.6004923 126.80072779 -245.8125 126.0625 C-219.73528763 123.09197676 -193.20704427 123.86193403 -167 124 C-167 128.62 -167 133.24 -167 138 C-168.473479 138.01458252 -169.94695801 138.02916504 -171.46508789 138.04418945 C-211.82902307 138.42413479 -211.82902307 138.42413479 -252 142 C-253.94788184 142.22946252 -255.89579703 142.45864214 -257.84375 142.6875 C-278.4771817 145.26760773 -294.92806812 154.09686036 -311 167 C-311.83660156 167.64710938 -312.67320312 168.29421875 -313.53515625 168.9609375 C-319.75398104 174.04812305 -324.82867442 180.24098258 -326.46875 188.3046875 C-326.66791009 192.70280606 -325.75599773 195.64112777 -323 199 C-313.30734001 209.50674167 -299.63792391 214.15817083 -286 217 C-284.92363281 217.22558594 -283.84726562 217.45117188 -282.73828125 217.68359375 C-258.87733319 221.70198802 -232.53204614 219.6459087 -208.58886719 216.55810547 C-203.86949616 215.96736811 -199.14189675 215.51217996 -194.40625 215.07421875 C-192.5396938 214.8985658 -190.67315803 214.72269555 -188.80664062 214.54663086 C-187.84862549 214.45654755 -186.89061035 214.36646423 -185.90356445 214.27365112 C-152.00245409 211.0785862 -118.42917703 207.30127635 -85.0625 200.375 C-57.29818792 194.64520814 -29.23621863 192.71938205 -1 191 C-0.13928894 190.94672546 0.72142212 190.89345093 1.60821533 190.83856201 C21.75664847 189.59202601 41.80479626 188.6564143 62 189 C62 193.62 62 198.24 62 203 C60.88152176 203.05819916 59.76304352 203.11639832 58.610672 203.17636108 C47.97718949 203.73025948 37.34396794 204.28895433 26.71097279 204.8521328 C21.24680649 205.14139452 15.78256706 205.42906986 10.31811523 205.71289062 C5.02698039 205.98777177 -0.26390279 206.26711894 -5.55465126 206.54933548 C-7.55516818 206.655303 -9.55576559 206.75976422 -11.55644798 206.86256027 C-29.17740717 207.7696726 -46.83162386 208.88324694 -64.25 211.8125 C-65.28390869 211.98136719 -66.31781738 212.15023438 -67.38305664 212.32421875 C-74.76871611 213.55674359 -82.10330016 214.9944255 -89.4375 216.5 C-112.3654399 221.19419025 -135.54095385 224.10121933 -158.77996826 226.74676514 C-161.00996863 227.0011371 -163.23961021 227.25850056 -165.46923828 227.51611328 C-292.89287013 242.15965727 -292.89287013 242.15965727 -328.515625 214.328125 C-335.72703308 208.34907305 -340.19948561 202.55203625 -341.359375 193.05859375 C-341.90728237 181.14160839 -336.98686849 172.39650009 -329.35986328 163.48925781 C-313.55671439 146.18239817 -290.44282046 133.9327108 -268 128 C-270.64 126.02 -273.28 124.04 -276 122 C-274.88825574 117.55302295 -272.94424757 115.26257104 -270 111.9375 C-268.97810157 110.76264433 -267.95728041 109.58685084 -266.9375 108.41015625 C-266.17953125 107.53834717 -266.17953125 107.53834717 -265.40625 106.64892578 C-263.52941289 104.44820394 -261.77331047 102.15956732 -260 99.875 C-246.90822638 83.83462871 -227.0890854 60.89532374 -205.125 58.0625 C-204.09375 58.041875 -203.0625 58.02125 -202 58 C-202.33 57.01 -202.66 56.02 -203 55 C-204.16141599 47.03600461 -199.89244027 41.0080958 -195.359375 34.7265625 C-182.67665975 19.2583911 -160.56823185 14.97630949 -141.62988281 12.71728516 C-137.86489705 12.46229712 -134.15626255 12.65465691 -130.39538574 12.86955261 C-111.53368211 13.8967191 -92.66647719 14.18647167 -73.7800293 14.18530273 C-71.11513936 14.18677858 -68.45070014 14.19233887 -65.78588867 14.20581055 C-32.05560816 15.25276369 -32.05560816 15.25276369 -2 2 C-1.34 1.34 -0.68 0.68 0 0 Z " fill="#050402" transform="translate(385,912)"/>
<path d="M0 0 C6.93 0.495 6.93 0.495 14 1 C13.88398437 2.18851563 13.76796875 3.37703125 13.6484375 4.6015625 C12.87545591 16.44025861 14.81229848 24.82921453 20.44287109 35.31103516 C23.58495428 41.28267347 25.09261859 46.21244967 24 53 C21.66208366 57.15629572 19.44781785 58.55540959 15 60 C12.01953125 60.265625 12.01953125 60.265625 8.8125 60.25 C7.76707031 60.25515625 6.72164062 60.2603125 5.64453125 60.265625 C2.71973761 60.05245676 0.23045083 59.6451213 -2.60644531 59.0065918 C-7.75625357 57.95709911 -12.69663856 57.66334981 -17.94140625 57.62890625 C-18.85876556 57.61770248 -19.77612488 57.60649872 -20.72128296 57.59495544 C-23.66854551 57.56783053 -26.61511813 57.56130228 -29.5625 57.5625 C-31.07373947 57.56189575 -31.07373947 57.56189575 -32.61550903 57.5612793 C-48.25874738 57.59737561 -62.94737386 58.35354796 -78 63 C-78.90508301 63.27875977 -79.81016602 63.55751953 -80.74267578 63.84472656 C-87.28605143 65.93444123 -93.65315844 68.37831239 -100 71 C-101.49249268 71.61536621 -101.49249268 71.61536621 -103.01513672 72.24316406 C-134.35352694 85.31848047 -163.37053409 101.26512825 -188.3046875 124.515625 C-190.32294024 126.37592753 -192.3613569 128.15953567 -194.44921875 129.9375 C-200.24209966 134.99028527 -205.63943773 140.45342009 -211.07202148 145.88671875 C-212.92477468 147.73728967 -214.78538706 149.57970076 -216.64648438 151.421875 C-223.5614501 158.30417668 -230.00083253 165.29268561 -236 173 C-236.890327 174.10440697 -237.78089569 175.20861922 -238.671875 176.3125 C-248.01860719 188.38080534 -248.01860719 188.38080534 -250 203 C-249.67 203.66 -249.34 204.32 -249 205 C-245.9373628 206.02087907 -243.71218827 206.19928124 -240.5 206.25 C-239.5409375 206.27578125 -238.581875 206.3015625 -237.59375 206.328125 C-228.05432536 205.45713405 -218.94283124 201.68081067 -210 198.4375 C-208.78521973 198.00131348 -207.57043945 197.56512695 -206.31884766 197.11572266 C-199.0950939 194.51701247 -191.9016292 191.84218565 -184.71899414 189.13183594 C-122.89378731 165.89491072 -66.7470916 169.06796041 -1.9921875 175.34375 C-0.8360495 175.4557222 0.3200885 175.5676944 1.51126099 175.68305969 C7.02426149 176.219468 12.53579702 176.76648764 18.04541016 177.33666992 C29.34740912 178.4879844 40.5961655 179.32146182 51.95404053 179.66899109 C57.54047796 179.84698113 62.96414125 180.28513461 68.5 181.0625 C77.19283681 182.15986098 85.87655601 182.22430544 94.625 182.25 C95.3264917 182.25508575 96.0279834 182.26017151 96.75073242 182.26541138 C109.80699949 182.34172467 122.23395239 181.07516364 132.37109375 171.83984375 C140.49448592 162.3958245 143.72490338 152.15130022 143.30859375 139.80078125 C143.00851606 136.10488766 142.54432451 132.47973742 142 128.8125 C138.0535546 101.41616168 144.62658559 76.44427706 159 53 C162.38932741 48.4706261 165.63267016 44.15342467 171 42 C173.75 41.875 173.75 41.875 176 42 C178.64805583 52.85230024 178.64805583 52.85230024 178 56 C177.24847656 56.40734375 176.49695313 56.8146875 175.72265625 57.234375 C167.43278226 62.61030476 162.91874631 77.00486011 160 86 C159.60683594 87.19882813 159.21367188 88.39765625 158.80859375 89.6328125 C154.66212034 103.39684956 154.73982803 117.87037994 157.54296875 131.90625 C158.99985369 141.76824037 159.44334635 152.89426909 155 162 C154.48953125 163.12148437 153.9790625 164.24296875 153.453125 165.3984375 C146.83948064 179.57508004 137.89087033 188.47173287 123 194 C114.53231819 196.93189855 106.66843901 197.47019273 97.75 197.375 C97.07236603 197.37167664 96.39473206 197.36835327 95.69656372 197.3649292 C79.76289358 197.2752346 63.93082198 195.9388133 48.06477356 194.57980347 C40.32047576 193.92415843 32.57089929 193.45605844 24.8125 193 C15.54964887 192.43529961 6.34539365 191.67297611 -2.875 190.625 C-32.08565056 187.36750515 -61.33844271 184.62788049 -90.75 184.5625 C-91.62841553 184.55650787 -92.50683105 184.55051575 -93.41186523 184.54434204 C-110.4677559 184.46605046 -127.47099414 186.12612174 -143.875 191 C-144.89198975 191.29342285 -145.90897949 191.5868457 -146.95678711 191.88916016 C-166.26434748 197.6061588 -185.12484801 204.86953654 -203.94677734 211.98974609 C-239.03972584 225.2292757 -239.03972584 225.2292757 -253.1875 219.3125 C-258.86860843 216.22846971 -262.83992925 212.13914846 -265 206 C-267.14094807 191.71917057 -259.157905 179.06002564 -251 168 C-247.52560919 163.49762068 -243.79307459 159.23434485 -240 155 C-238.73349609 153.56720703 -238.73349609 153.56720703 -237.44140625 152.10546875 C-230.64306793 144.52507635 -223.43691734 137.33382 -216.25 130.125 C-215.75431519 129.62663635 -215.25863037 129.12827271 -214.7479248 128.61480713 C-209.01179876 122.85518987 -203.18766311 117.27467367 -197 112 C-195.91609611 111.03987032 -194.83399269 110.07770332 -193.75390625 109.11328125 C-161.64291357 80.77005833 -120.97361081 60.03599818 -80 48 C-79.01 47.70738281 -78.02 47.41476562 -77 47.11328125 C-62.50603295 43.16213332 -47.85320477 42.64986862 -32.92797852 42.68432617 C-30.06943775 42.68749232 -27.21193003 42.66390254 -24.35351562 42.63867188 C-12.91428129 42.60131414 -2.17770119 43.54934349 9 46 C8.59890015 45.14619751 8.59890015 45.14619751 8.18969727 44.27514648 C6.97102664 41.66696355 5.7667027 39.05239235 4.5625 36.4375 C4.14162109 35.54224609 3.72074219 34.64699219 3.28710938 33.72460938 C-0.1007121 26.32560728 -1.14292118 20.02913666 -1.125 11.875 C-1.12757813 10.69679688 -1.13015625 9.51859375 -1.1328125 8.3046875 C-1 5 -1 5 0 0 Z " fill="#040301" transform="translate(641,1025)"/>
<path d="M0 0 C23.06276357 18.28405076 40.42821536 45.4399812 44.20703125 74.921875 C44.31789063 75.89769531 44.42875 76.87351562 44.54296875 77.87890625 C44.65382813 78.65878906 44.7646875 79.43867188 44.87890625 80.2421875 C48.79029649 110.84617333 40.11658888 141.41010357 21.43652344 165.90332031 C12.36184316 177.3875039 2.16512968 187.36389784 -10.45703125 194.87890625 C-11.09479492 195.25885742 -11.73255859 195.63880859 -12.38964844 196.03027344 C-40.0734545 212.1980427 -72.52137078 217.77250956 -103.921875 210.1328125 C-136.57942459 201.40709108 -163.43537613 181.29456634 -180.50683594 152.08251953 C-195.30075566 125.78139344 -200.16973282 93.93535595 -192.38671875 64.55078125 C-191.23851398 60.59590531 -189.88195182 56.74239352 -188.45703125 52.87890625 C-187.90208984 51.32816406 -187.90208984 51.32816406 -187.3359375 49.74609375 C-182.35960799 36.83174381 -174.73485546 25.10196334 -165.45703125 14.87890625 C-164.98813477 14.36086426 -164.51923828 13.84282227 -164.03613281 13.30908203 C-149.95522564 -2.04320803 -131.43748787 -13.9801738 -111.45703125 -20.12109375 C-110.56628906 -20.39566406 -109.67554688 -20.67023438 -108.7578125 -20.953125 C-71.25444343 -31.81358708 -30.94363668 -23.44003382 0 0 Z M-145.45703125 14.87890625 C-146.46765625 15.64203125 -147.47828125 16.40515625 -148.51953125 17.19140625 C-153.03626567 21.32373774 -156.70964117 26.05142483 -160.45703125 30.87890625 C-161.35615234 32.00232422 -161.35615234 32.00232422 -162.2734375 33.1484375 C-170.47937469 44.01987632 -176.63309986 57.57901921 -179.45703125 70.87890625 C-179.63129639 71.62140625 -179.80556152 72.36390625 -179.98510742 73.12890625 C-185.96423988 99.98255378 -179.55678286 127.67630153 -165.0234375 150.64453125 C-162.04312566 154.89574914 -158.77261787 158.88766438 -155.45703125 162.87890625 C-154.69390625 163.88953125 -153.93078125 164.90015625 -153.14453125 165.94140625 C-135.98003838 184.70259614 -109.906044 197.08586655 -84.6418457 199.10375977 C-57.74970008 200.1684014 -32.13424911 194.5783926 -10.45703125 177.87890625 C-9.49410156 177.14671875 -8.53117187 176.41453125 -7.5390625 175.66015625 C-1.86995341 171.19219443 3.09589008 166.56243904 7.54296875 160.87890625 C8.1771875 160.08097656 8.81140625 159.28304687 9.46484375 158.4609375 C24.13957661 139.20746047 31.74742358 117.26321073 31.85546875 93.06640625 C31.86380737 91.49185669 31.86380737 91.49185669 31.87231445 89.88549805 C31.6510369 65.95915359 21.49488068 42.4998311 5.54296875 24.87890625 C4.36734375 23.33203125 4.36734375 23.33203125 3.16796875 21.75390625 C-15.19331547 1.6439283 -42.45655212 -10.10120004 -69.38671875 -11.49609375 C-97.95232742 -12.36780349 -123.64643876 -3.72305159 -145.45703125 14.87890625 Z " fill="#040301" transform="translate(1186.45703125,137.12109375)"/>
<path d="M0 0 C49.83229545 6.58364376 100.63846074 26.39741178 137 62 C137.69625488 62.6811084 138.39250977 63.3622168 139.10986328 64.06396484 C141.37198823 66.28561538 143.6257224 68.5153455 145.875 70.75 C146.92747925 71.79522827 146.92747925 71.79522827 148.0012207 72.86157227 C152.53715412 77.41260569 156.80680084 82.13362309 161 87 C162.49570227 88.67052462 163.99504266 90.33780832 165.5 92 C168.09316018 94.87115391 170.66295338 97.75597357 173.1875 100.6875 C176.61768403 104.6270385 180.18139665 108.43640372 183.75 112.25 C184.6635022 113.22755249 184.6635022 113.22755249 185.59545898 114.22485352 C189.06739118 117.93958112 189.06739118 117.93958112 192.55078125 121.64355469 C221.65483372 152.49306583 221.65483372 152.49306583 221.265625 169.91015625 C220.69394189 174.40795716 218.88011975 177.478853 215.36328125 180.32421875 C193.42526656 192.60778297 148.77114194 176.7204056 126.4609375 170.49609375 C123.90312025 169.76094001 121.35015507 169.01116451 118.79858398 168.25463867 C94.80341687 161.16889524 70.19318609 156.20459017 45.33886719 153.38061523 C43.58472949 153.18065175 41.83076537 152.97803199 40.07995605 152.75076294 C23.80339108 150.64047572 7.51398273 150.64179642 -8.86739731 150.68214417 C-11.14879268 150.68755644 -13.43017775 150.68994342 -15.71157837 150.6920166 C-44.05998559 150.73219861 -71.50363635 152.29475378 -99.5078125 157.08203125 C-119.96898599 160.56078536 -139.67119773 160.71986257 -160.24853516 158.02856445 C-162.9202864 157.68161925 -165.59436355 157.36043501 -168.26953125 157.04101562 C-169.98977323 156.82441957 -171.7098338 156.60637662 -173.4296875 156.38671875 C-174.61399857 156.24589119 -174.61399857 156.24589119 -175.82223511 156.10221863 C-180.18374002 155.51285418 -183.41589685 154.74608137 -187 152 C-189 149 -189 149 -188.875 146 C-188 143 -188 143 -186.375 141.125 C-181.05482151 138.60491545 -174.71126301 140.2064961 -169.07421875 141.09375 C-167.53847994 141.32207568 -166.00267009 141.54992392 -164.46679688 141.77734375 C-162.09503319 142.13394523 -159.72404321 142.49430267 -157.35424805 142.86376953 C-141.54799876 145.31189791 -126.33129624 145.82881684 -110.4375 143.6875 C-109.37450684 143.55287354 -108.31151367 143.41824707 -107.21630859 143.27954102 C-100.47008812 142.40144047 -93.78651829 141.30707299 -87.1003418 140.05981445 C-63.25491767 135.69879821 -38.76692089 135.8132146 -14.6171875 135.81469727 C-10.63791249 135.81250711 -6.65891399 135.7942623 -2.6796875 135.77539062 C18.62242549 135.72645806 39.37482193 137.15669479 60.40893555 140.49462891 C62.83038892 140.87783097 65.25377915 141.24627309 67.67773438 141.61328125 C83.41101248 144.03737678 98.81862064 147.61216835 114.25 151.5 C115.46163818 151.80333252 116.67327637 152.10666504 117.92163086 152.41918945 C123.83519363 153.90983944 129.71697857 155.44964228 135.5625 157.1875 C148.40749456 160.92999224 161.59271269 163.19716159 174.77297974 165.4067688 C176.75329199 165.74003587 178.73202516 166.08264396 180.71069336 166.42553711 C189.26376388 167.82080437 197.34396193 168.27078848 206 168 C202.83666919 156.64922476 196.66033202 148.2986735 188.625 139.80078125 C186.58014129 137.61899003 184.60346827 135.41343538 182.64453125 133.15625 C179.08931267 129.07192955 175.40770292 125.12128451 171.6875 121.1875 C163.90377831 112.91921856 156.21688761 104.57908063 148.76171875 96.01171875 C145.21972635 91.96709328 141.60754506 87.9860792 138 84 C137.08715696 82.98054272 136.17439928 81.96100902 135.26171875 80.94140625 C130.14029989 75.24758306 124.98053875 69.80788409 119 65 C118.08089844 64.24332031 117.16179687 63.48664063 116.21484375 62.70703125 C84.12524239 36.80319312 42.69656174 21.74665816 2.44824219 15.46142578 C0 15 0 15 -2 14 C-1.85795259 12.41632253 -1.71119847 10.83306682 -1.5625 9.25 C-1.44068359 7.92742188 -1.44068359 7.92742188 -1.31640625 6.578125 C-1.03709315 4.30224048 -0.57793339 2.21301184 0 0 Z " fill="#040301" transform="translate(1096,1006)"/>
<path d="M0 0 C8.08958225 37.17355655 -3.67694154 75.70688864 -23 108 C-25.7428213 111.6448844 -28.77519891 114.78684079 -32 118 C-52.60331161 141.50413887 -50.78908095 183.75877997 -53.625 213.125 C-53.73494293 214.2594455 -53.84488586 215.39389099 -53.9581604 216.56271362 C-55.9106825 237.15293043 -56.6299374 257.66111267 -56.72314453 278.33837891 C-56.79374469 291.68180914 -57.4913279 304.7431356 -59 318 C-59.15414125 319.44671124 -59.30695077 320.89356516 -59.45825195 322.34057617 C-66.08634969 384.99361997 -87.502332 445.98157203 -137.125 487.4375 C-139.07319694 488.97390604 -141.03053144 490.49150699 -143 492 C-144.01562012 492.78963135 -144.01562012 492.78963135 -145.05175781 493.59521484 C-172.09105844 514.57598944 -199.66482795 530.61382 -231.66064453 542.72314453 C-237.46099168 544.94099916 -243.21042674 547.28482766 -248.96118164 549.62768555 C-249.7061792 549.92843994 -250.45117676 550.22919434 -251.21875 550.5390625 C-252.1768457 550.92892334 -252.1768457 550.92892334 -253.15429688 551.32666016 C-255.08114827 552.02960409 -257.00307236 552.5372568 -259 553 C-259.99 551.515 -259.99 551.515 -261 550 C-263.31 550.66 -265.62 551.32 -268 552 C-268.8125 548.8125 -268.8125 548.8125 -269 545 C-263.07261766 536.77814708 -251.15972481 534.0723229 -242.0088501 530.65792847 C-214.04785507 520.1928599 -189.08544339 507.82483339 -165 490 C-164.11707275 489.34668701 -164.11707275 489.34668701 -163.21630859 488.68017578 C-138.3246893 470.13445771 -117.53697181 449.80602967 -103.08007812 422.06640625 C-102.12087751 420.23126294 -101.13277032 418.41129352 -100.140625 416.59375 C-90.27327721 397.94536795 -83.05362874 376.89284224 -79.5 356.125 C-79.2927832 354.93825684 -79.08556641 353.75151367 -78.87207031 352.52880859 C-77.2938016 343.25376083 -75.96152147 333.9537724 -74.75 324.625 C-74.58693359 323.37348145 -74.42386719 322.12196289 -74.25585938 320.83251953 C-72.29993277 305.19967213 -71.85253724 289.77661629 -71.67007446 274.0423584 C-71.37145598 250.57422082 -70.45156213 227.3404434 -68 204 C-67.89925171 203.02746277 -67.79850342 202.05492554 -67.69470215 201.05291748 C-60.00781877 127.1689303 -60.00781877 127.1689303 -42.48974609 108.2434082 C-35.27483279 100.36754168 -30.96555635 91.20089071 -27 81.375 C-26.56993652 80.32103027 -26.13987305 79.26706055 -25.69677734 78.18115234 C-24.45530408 75.12439211 -23.22728138 72.06247821 -22 69 C-21.6793457 68.21689453 -21.35869141 67.43378906 -21.02832031 66.62695312 C-12.25939689 45.20501817 -10.86263132 25.88598403 -14 3 C-12.4188708 2.49307308 -10.83498617 1.99473557 -9.25 1.5 C-7.92742187 1.08234375 -7.92742187 1.08234375 -6.578125 0.65625 C-4 0 -4 0 0 0 Z " fill="#050402" transform="translate(1107,549)"/>
<path d="M0 0 C5.35255342 3.38357841 9.87983046 7.69814107 14.4375 12.0625 C15.09363281 12.64386719 15.74976563 13.22523438 16.42578125 13.82421875 C28.40272675 24.85887868 41.31824039 43.00931649 42.73828125 59.5703125 C42.81204481 82.33866561 34.80694294 104.70478125 19.75 121.75 C19.28625977 122.28044922 18.82251953 122.81089844 18.34472656 123.35742188 C16.98828125 124.82421875 16.98828125 124.82421875 14.4375 127.0625 C10.4375 127.0625 10.4375 127.0625 8.48046875 125.671875 C7.86816406 125.05828125 7.25585938 124.4446875 6.625 123.8125 C5.99980469 123.20921875 5.37460938 122.6059375 4.73046875 121.984375 C3.4375 120.0625 3.4375 120.0625 3.5078125 118.05859375 C5.00627718 114.84130193 7.54075594 112.90479024 10.13671875 110.55078125 C16.51630211 103.65129976 19.85393404 96.16635058 22.75 87.3125 C23.09611328 86.29800781 23.44222656 85.28351563 23.79882812 84.23828125 C27.13538867 74.33916789 30.19038422 62.69561092 26 52.5625 C25.19092528 51.03770533 24.32949461 49.54031809 23.4375 48.0625 C22.50550781 46.45955078 22.50550781 46.45955078 21.5546875 44.82421875 C14.73645724 33.47045832 4.49223616 19.08986808 -7.5625 13.0625 C-17.79761837 12.15431344 -27.15025887 20.82337983 -34.8828125 26.73828125 C-38.0675103 29.50051914 -40.41500131 32.4763774 -42.8828125 35.87109375 C-53.67133171 49.94634788 -72.44826611 55.79658725 -88.875 60.5 C-102.35959033 64.38817642 -115.00708893 69.59558859 -127.75 75.4375 C-128.91378174 75.96666016 -130.07756348 76.49582031 -131.27661133 77.04101562 C-155.95569374 88.52663651 -171.22658068 103.62514518 -181.03588867 129.19580078 C-193.17108247 162.5190359 -198.7550909 197.06779615 -201.2416687 232.28775024 C-202.80292898 254.35657785 -204.73662634 276.95578318 -214.5625 297.0625 C-215.35433176 298.77997595 -216.14340886 300.49872468 -216.9296875 302.21875 C-222.6289459 314.42640672 -228.83483587 326.23865714 -235.52294922 337.92578125 C-238.71571286 343.54194761 -241.53327744 348.92260967 -243.5625 355.0625 C-245.35456547 354.92165204 -247.14614917 354.77466299 -248.9375 354.625 C-249.93523438 354.54378906 -250.93296875 354.46257812 -251.9609375 354.37890625 C-254.5625 354.0625 -254.5625 354.0625 -256.5625 353.0625 C-257.01213616 347.79106098 -255.52974642 344.22850669 -253.09765625 339.68359375 C-252.73785172 338.98858261 -252.37804718 338.29357147 -252.00733948 337.57749939 C-250.87331059 335.39797506 -249.72082864 333.22919537 -248.5625 331.0625 C-248.20500671 330.39035461 -247.84751343 329.71820923 -247.47918701 329.0256958 C-245.72045596 325.72347047 -243.94865497 322.42850452 -242.16821289 319.13793945 C-235.61153631 307.01536388 -229.31346025 295.03311467 -224.5625 282.0625 C-224.20929687 281.23492188 -223.85609375 280.40734375 -223.4921875 279.5546875 C-216.92768998 261.95742104 -216.88893082 240.39929253 -215.5625 221.875 C-214.1165934 202.14080687 -211.31481337 183.31793015 -206.35644531 164.14697266 C-205.57921098 161.12742205 -204.82961421 158.10218756 -204.0859375 155.07421875 C-199.48257894 136.55745954 -193.86995227 118.78845567 -184.5625 102.0625 C-183.99789062 101.04542969 -183.43328125 100.02835938 -182.8515625 98.98046875 C-165.49075307 69.84202099 -126.73295257 57.13806874 -96.1953125 46.8984375 C-95.35343887 46.61502502 -94.51156525 46.33161255 -93.6441803 46.03961182 C-89.38528975 44.60746534 -85.12225443 43.19152563 -80.84838867 41.8046875 C-68.21315428 37.64825389 -59.83403907 33.00290773 -51 22.875 C-39.54319251 10.25085402 -18.31721896 -9.23908935 0 0 Z " fill="#050402" transform="translate(1054.5625,441.9375)"/>
<path d="M0 0 C0.50692692 1.5811292 1.00526443 3.16501383 1.5 4.75 C1.91765625 6.07257812 1.91765625 6.07257812 2.34375 7.421875 C3 10 3 10 3 14 C-11.31428862 17.47701934 -25.69097139 20.47520255 -40.22528076 22.86395264 C-41.72843902 23.11223498 -43.2306983 23.36605718 -44.73175049 23.62677002 C-77.29822398 29.24065143 -110.88873811 28.35297962 -143.81097412 28.54260254 C-153.82588128 28.60161918 -163.84069839 28.67524243 -173.85546875 28.75390625 C-175.45120948 28.76642929 -175.45120948 28.76642929 -177.07918739 28.77920532 C-190.0953479 28.88543505 -203.10634027 29.04462808 -216.1171875 29.44140625 C-217.93037727 29.49307701 -217.93037727 29.49307701 -219.78019714 29.54579163 C-248.58497301 30.54740613 -277.08139673 45.75862607 -299 64 C-299.88300781 64.72960937 -300.76601563 65.45921875 -301.67578125 66.2109375 C-327.8510668 88.7632053 -340.22407156 123.56064643 -353.05621338 154.71020508 C-354.03050664 157.07401456 -355.00799649 159.43648522 -355.98583984 161.79882812 C-357.67399701 165.88120193 -359.35305981 169.96721652 -361.02548218 174.05606079 C-361.66133227 175.6098942 -362.29865461 177.1631262 -362.93765259 178.71566772 C-368.73973888 192.83725121 -373.90383791 207.16687168 -377.8125 221.9375 C-379.94087838 229.82263514 -379.94087838 229.82263514 -381 233 C-382.41805831 232.71517632 -383.83440379 232.42181856 -385.25 232.125 C-386.43335938 231.88136719 -386.43335938 231.88136719 -387.640625 231.6328125 C-389.96831144 231.00849925 -391.89031952 230.15161458 -394 229 C-386.83851994 189.28633787 -368.50497574 151.5760868 -352 115 C-351.61682617 114.14180664 -351.23365234 113.28361328 -350.83886719 112.39941406 C-343.72407626 96.52511431 -335.52888982 81.14616895 -324 68 C-323.30519531 67.17371094 -322.61039062 66.34742188 -321.89453125 65.49609375 C-316.48367612 59.22333249 -310.56158239 54.03819403 -304 49 C-303.17113281 48.34386719 -302.34226562 47.68773437 -301.48828125 47.01171875 C-276.72439631 28.08801495 -246.47199726 15.19476848 -215.26171875 14.40234375 C-213.97126144 14.36511703 -212.68080414 14.32789032 -211.35124207 14.28953552 C-184.94124206 13.58579213 -158.50215206 13.65588558 -132.0847168 13.52319336 C-125.78541484 13.491123 -119.48622617 13.44982297 -113.18701744 13.40299797 C-110.82277151 13.38719798 -108.45850006 13.37477799 -106.0942173 13.36609077 C-87.46343592 13.29649173 -69.29823095 11.98371405 -50.875 9.1875 C-49.75826904 9.02008301 -48.64153809 8.85266602 -47.4909668 8.68017578 C-33.76705296 6.57205655 -19.90131318 4.33472142 -6.44921875 0.8515625 C-3 0 -3 0 0 0 Z " fill="#040301" transform="translate(774,754)"/>
<path d="M0 0 C4.59306496 1.4859916 7.43569245 3.85014682 11 7 C10.10534729 11.38712503 7.71926596 14.38208412 5.125 17.9375 C-8.94828376 37.93186047 -18.08323671 59.86671233 -22 84 C-22.16983398 84.88389404 -22.33966797 85.76778809 -22.51464844 86.6784668 C-23.08035368 90.54990537 -23.21711599 94.36909431 -23.2734375 98.2734375 C-23.29229759 99.46209915 -23.29229759 99.46209915 -23.3115387 100.67477417 C-23.89917537 146.66751169 -10.56987499 186.33718595 21.3359375 220.296875 C24.27947305 223.2835709 27.34385633 226.00427963 30.63671875 228.59765625 C32 230 32 230 32 233 C30.46875 235.26171875 30.46875 235.26171875 28.5 237.6875 C27.8503125 238.49574219 27.200625 239.30398438 26.53125 240.13671875 C26.0259375 240.75160156 25.520625 241.36648438 25 242 C-7.26008125 219.6660976 -28.5278879 179.05526519 -35.5925293 141.33642578 C-36.08642952 138.56052989 -36.56077998 135.78505422 -37 133 C-37.17813232 131.89011719 -37.35626465 130.78023437 -37.53979492 129.63671875 C-43.15515303 85.26198431 -30.36288404 41.61222594 -4.1015625 5.86328125 C-2.69026977 3.94046048 -1.32304856 1.98457285 0 0 Z " fill="#040401" transform="translate(963,123)"/>
<path d="M0 0 C1.15359459 2.44237606 2.10417457 4.77666082 3 7.3125 C3.2475 7.97056641 3.495 8.62863281 3.75 9.30664062 C7.5118036 19.62221144 9.5429988 29.43966858 9.4375 40.4375 C9.42992676 41.56857178 9.42235352 42.69964355 9.41455078 43.86499023 C9.20790323 54.58728302 7.48816081 64.60062296 5 75 C4.5012437 77.14581976 4.00254855 79.29165374 3.50390625 81.4375 C2.51061316 85.66254974 1.49998349 89.88266415 0.46484375 94.09765625 C0.22677002 95.06783691 -0.01130371 96.03801758 -0.2565918 97.03759766 C-0.76593639 99.06728149 -1.29168531 101.09289901 -1.83129883 103.11474609 C-3.37024645 108.9532752 -4.58456634 114.4479375 -4.5625 120.5 C-4.56008301 121.21704102 -4.55766602 121.93408203 -4.55517578 122.67285156 C-4.27373738 130.90998336 -1.16563029 138.3830822 4.875 144.125 C8.63104175 146.37862505 11.71057918 147.18648916 16 148 C15.34 152.62 14.68 157.24 14 162 C5.45958864 161.5255327 -1.83196931 158.73720959 -7.75 152.375 C-17.97117342 139.61665587 -20.58466719 126.92025514 -19 111 C-17.73693849 103.58383712 -15.76762596 96.32846021 -13.81689453 89.06884766 C-6.34321514 60.99229359 -0.42290302 33.11437843 -14 6 C-14 5.34 -14 4.68 -14 4 C-12.23494565 3.13395466 -10.46271926 2.28251358 -8.6875 1.4375 C-7.70136719 0.96183594 -6.71523437 0.48617187 -5.69921875 -0.00390625 C-3 -1 -3 -1 0 0 Z " fill="#050402" transform="translate(1079,926)"/>
<path d="M0 0 C4.60853797 0.72008406 8.67237409 2.31295939 13 4 C7.77392701 32.59823274 -22.61363154 62.22892919 -45 78 C-65.45641838 92 -65.45641838 92 -70 92 C-70.84069415 90.39967863 -71.67231505 88.79458829 -72.5 87.1875 C-72.9640625 86.29417969 -73.428125 85.40085937 -73.90625 84.48046875 C-75 82 -75 82 -75 79 C-73.97261719 78.443125 -72.94523437 77.88625 -71.88671875 77.3125 C-63.49615022 72.71439936 -55.51505184 67.96208593 -48 62 C-47.49404297 61.60087402 -46.98808594 61.20174805 -46.46679688 60.79052734 C-25.59024447 44.1818728 -11.73350742 23.73009797 0 0 Z " fill="#040301" transform="translate(1273,293)"/>
</svg>
