 <svg  version="1.0" xmlns="http://www.w3.org/2000/svg"  width="300.000000pt" height="267.000000pt" viewBox="0 0 300.000000 267.000000"  preserveAspectRatio="xMidYMid meet">  <g transform="translate(0.000000,267.000000) scale(0.100000,-0.100000)" fill="#ffffff" stroke="none"> <path d="M2437 2656 c-136 -38 -222 -172 -202 -311 15 -99 107 -198 208 -226 87 -23 202 6 270 70 84 77 108 224 55 327 -62 118 -201 177 -331 140z m152 -32 c129 -38 203 -172 166 -301 -36 -122 -162 -200 -285 -175 -66 14 -124 53 -165 110 -25 37 -30 55 -33 117 -3 61 0 82 18 120 27 56 91 111 150 130 60 18 86 18 149 -1z"/> <path d="M2135 2596 c-46 -79 -58 -129 -53 -230 4 -107 30 -172 100 -251 35 -40 43 -44 51 -30 7 13 1 25 -26 53 -106 109 -127 309 -46 437 27 43 30 65 9 65 -5 0 -21 -20 -35 -44z"/> <path d="M2880 2211 c-14 -36 -92 -117 -132 -137 -29 -15 -35 -28 -18 -39 24 -15 120 68 174 150 31 47 32 55 7 55 -11 0 -23 -12 -31 -29z"/> <path d="M2325 1888 c-11 -6 -36 -26 -55 -44 -24 -22 -71 -47 -138 -73 -56 -21 -117 -50 -137 -65 -64 -49 -96 -140 -120 -344 -14 -111 -20 -132 -60 -213 -40 -78 -43 -89 -26 -89 13 0 30 23 61 84 38 74 44 97 56 199 20 178 54 287 100 328 28 24 111 64 178 85 37 12 73 32 100 57 73 68 86 67 140 -12 24 -34 27 -46 21 -80 -4 -23 -18 -57 -31 -77 -19 -27 -22 -40 -14 -48 23 -22 78 78 79 144 1 40 -21 81 -69 128 -36 34 -53 38 -85 20z"/> <path d="M2476 1598 c7 -54 -23 -142 -71 -212 -43 -64 -53 -119 -65 -346 -10 -194 -13 -218 -42 -307 -47 -150 -179 -276 -353 -339 -53 -19 -75 -32 -75 -44 0 -18 68 2 158 45 75 37 109 62 172 123 125 125 155 211 170 483 14 262 25 319 75 387 37 51 65 136 65 197 0 48 -2 55 -20 55 -17 0 -19 -5 -14 -42z"/> <path d="M1675 1148 c-16 -5 -142 -14 -279 -19 l-249 -9 -65 -31 c-84 -41 -138 -96 -183 -189 -49 -102 -111 -269 -104 -280 11 -18 35 -10 35 10 0 22 68 197 105 270 36 72 76 112 147 151 l63 34 220 6 c245 7 368 23 363 47 -4 20 -16 22 -53 10z"/> <path d="M781 771 c-20 -13 -55 -16 -183 -18 -89 -1 -173 -7 -193 -13 -41 -14 -75 -46 -75 -71 0 -10 -13 -21 -31 -28 -43 -15 -152 -130 -138 -147 7 -9 1 -15 -24 -23 -55 -19 -115 -68 -127 -107 -26 -78 49 -123 205 -124 102 0 303 20 386 39 39 9 275 31 332 31 9 0 17 7 17 16 0 15 -13 16 -130 10 -72 -4 -176 -15 -233 -25 -142 -26 -345 -45 -422 -39 -66 6 -135 37 -135 63 0 24 46 70 94 94 39 19 69 24 167 28 104 5 119 8 119 23 0 19 -2 19 -183 6 -42 -3 -46 -1 -35 13 30 40 85 94 110 107 35 18 112 18 174 -1 36 -11 50 -11 55 -3 4 7 6 15 4 19 -8 11 -92 29 -141 29 -46 0 -46 0 -32 23 25 36 72 46 236 46 149 1 209 11 226 39 12 21 -18 30 -43 13z"/> <path d="M2422 751 c-10 -6 -10 -17 -1 -52 10 -38 9 -58 -10 -140 -20 -88 -21 -100 -7 -132 15 -36 49 -63 66 -52 17 11 11 30 -12 40 -30 13 -34 63 -14 143 9 33 16 79 16 103 -1 56 -20 102 -38 90z"/> <path d="M2477 550 c-4 -15 5 -20 52 -29 106 -21 197 -74 285 -164 43 -45 97 -104 119 -132 l40 -50 -29 -3 c-16 -2 -60 4 -99 13 -242 54 -262 57 -385 58 -69 0 -163 -5 -210 -12 -59 -9 -103 -9 -145 -3 -63 11 -89 2 -66 -20 9 -10 46 -12 139 -9 354 10 439 7 577 -26 179 -43 206 -47 229 -30 17 12 18 18 8 47 -12 34 -77 112 -176 213 -64 65 -181 129 -275 151 -55 13 -60 13 -64 -4z"/> <path d="M1407 513 c-11 -10 -8 -36 8 -67 8 -15 15 -29 15 -31 0 -1 -34 0 -75 3 -90 6 -204 -26 -304 -85 -117 -69 -271 -231 -271 -285 0 -10 11 -25 25 -34 29 -19 54 -15 186 31 128 45 183 49 382 31 222 -21 311 -21 348 1 43 26 62 74 54 139 -7 59 13 142 41 164 20 17 18 42 -3 38 -10 -2 -31 -28 -46 -58 -26 -49 -28 -62 -24 -126 6 -83 -13 -129 -59 -140 -14 -4 -103 0 -197 7 -95 8 -224 14 -287 14 -110 0 -120 -2 -237 -44 -68 -24 -129 -41 -137 -38 -28 11 -2 52 94 149 83 84 109 103 191 143 108 52 185 68 283 59 l69 -7 -7 37 c-3 20 -9 52 -12 71 -6 32 -21 44 -37 28z"/> </g> </svg> 